PathFileType	4	(X/Y/Z)	 s02c0402.trc
DataRate	CameraRate	NumFrames	NumMarkers	Units	OrigDataRate	OrigDataStartFrame	OrigNumFrames
200	200	6	50	mm	200	1501	2000
Frame#	Time	racr			lacr			c7			jug			rlel			rdr			llel			ldr			s2			lic			ric			lasi			rasi			rpsi			lpsi			rgt			lgt			rth1			rth2			rth3			rth4			rlfc			rmfc			rsh1			rsh2			rsh3			rsh4			rlmal			rmmal			rtoe			rmt5			rmt1			lth1			lth2			lth4			lth3			llfc			lmfc			lsh1			lsh2			lsh3			lsh4			llmal			lmmal			lcal			ltoe			lmt5			SBIKE			LBIKE			RBIKE			
		X1	Y1	Z1	X2	Y2	Z2	X3	Y3	Z3	X4	Y4	Z4	X5	Y5	Z5	X6	Y6	Z6	X7	Y7	Z7	X8	Y8	Z8	X9	Y9	Z9	X10	Y10	Z10	X11	Y11	Z11	X12	Y12	Z12	X13	Y13	Z13	X14	Y14	Z14	X15	Y15	Z15	X16	Y16	Z16	X17	Y17	Z17	X18	Y18	Z18	X19	Y19	Z19	X20	Y20	Z20	X21	Y21	Z21	X22	Y22	Z22	X23	Y23	Z23	X24	Y24	Z24	X25	Y25	Z25	X26	Y26	Z26	X27	Y27	Z27	X28	Y28	Z28	X29	Y29	Z29	X30	Y30	Z30	X31	Y31	Z31	X32	Y32	Z32	X33	Y33	Z33	X34	Y34	Z34	X35	Y35	Z35	X36	Y36	Z36	X37	Y37	Z37	X38	Y38	Z38	X39	Y39	Z39	X40	Y40	Z40	X41	Y41	Z41	X42	Y42	Z42	X43	Y43	Z43	X44	Y44	Z44	X45	Y45	Z45	X46	Y46	Z46	X47	Y47	Z47	X48	Y48	Z48	X49	Y49	Z49	X50	Y50	Z50	
1501	7.5050	678.422597	1161.574186	-100.490133	709.229520	1163.415495	-476.405741	720.705183	1234.311268	-294.913870	633.618914	1132.393557	-283.201849	529.015680	954.231775	-25.056438	674.599633	866.414416	-114.489711	570.366678	990.373592	-650.382096	684.719149	873.360421	-518.343636	151.087100	1143.333017	-325.782999	306.521327	1129.851740	-455.970812	281.681342	1133.636459	-161.134696	344.464504	1095.727734	-423.424638	336.609178	1100.396121	-181.841968	186.495396	1171.621279	-272.808724	198.531123	1179.337890	-358.693698	244.807413	1046.341718	-131.132454	261.094514	1056.622867	-490.631123	311.372848	966.480939	-117.728896	367.839588	898.453604	-120.161886	386.148470	816.795475	-100.399146	397.172614	910.142891	-142.436646	419.300337	681.770414	-136.033056	413.034152	665.139837	-239.954326	398.759212	574.231052	-115.541054	402.025261	486.532794	-132.720673	363.721690	409.245713	-132.077309	417.660560	486.585626	-169.212068	327.564288	297.644809	-141.243591	338.106118	317.059193	-219.910950	517.554025	175.424664	-186.819014	408.866278	195.021185	-126.583250	439.735912	206.124100	-231.666003	379.421508	984.356467	-496.635307	457.612053	947.274729	-494.200737	477.246510	969.128731	-470.899226	507.650522	872.765132	-498.830907	570.358000	794.424140	-478.190318	559.067507	763.639827	-369.607946	498.027173	722.043754	-496.431327	435.389539	665.501590	-481.348814	347.897624	641.884499	-487.634879	445.853081	650.237104	-444.225764	247.599565	606.984987	-478.342534	258.245917	589.643266	-401.088242	174.716622	633.383079	-432.706574	290.157138	371.964456	-439.869875	221.788359	456.092571	-498.384849	-161.836084	859.644624	-311.388928	37.245552	86.856019	-514.279753	33.929286	83.171139	-114.112166	
1502	7.5100	680.055773	1162.596219	-102.478897	708.928772	1162.568603	-478.214070	720.876143	1234.411972	-297.958881	634.407484	1132.138384	-285.057396	530.098418	956.051963	-24.756334	674.657775	866.647215	-113.858048	570.662644	989.284305	-652.251075	684.506013	873.266088	-518.835445	151.679398	1142.441375	-324.061535	305.723599	1129.711417	-455.454967	282.974334	1131.674723	-160.356975	344.202423	1095.561771	-423.083195	337.701375	1098.209167	-181.436276	187.064214	1170.269460	-271.155759	198.396357	1178.518819	-357.003691	245.076683	1043.398599	-130.655267	260.887230	1056.135309	-489.954055	309.218242	962.810865	-116.899601	364.032646	893.361352	-119.396582	380.269469	811.222424	-100.026410	393.881939	904.479531	-141.620152	410.182717	676.350312	-135.493159	404.599778	659.522651	-239.481436	390.352030	568.895111	-115.248655	393.718622	481.206319	-132.058110	355.654832	403.730879	-131.571535	409.578047	480.724901	-169.210911	320.266537	292.039041	-140.857871	330.901650	311.459149	-219.390746	509.105411	167.388698	-186.962019	400.656187	188.292222	-126.606809	431.334504	198.893080	-232.124049	380.648119	986.486611	-495.954694	459.676663	951.467687	-492.857677	478.707562	973.614351	-469.092195	511.611799	878.138274	-496.975384	576.586947	801.996203	-475.207521	566.045188	771.000919	-366.808084	504.572961	729.014303	-494.145523	441.573389	672.529424	-479.059242	354.180060	649.217959	-486.135092	451.895346	657.251662	-442.079190	253.635907	614.249223	-477.217316	263.960942	597.505443	-399.624393	179.740787	639.676644	-432.307873	299.457157	379.558772	-438.497221	230.290324	463.385154	-498.078891	-161.699615	859.477591	-311.756184	37.241487	86.864309	-514.273566	33.927519	83.165749	-114.124902	
1503	7.5150	681.739904	1163.632754	-104.483657	708.606462	1161.699092	-480.372051	720.992811	1234.270844	-300.910152	635.099800	1131.712399	-286.693188	531.118673	957.939664	-24.500366	675.021555	866.809658	-113.426322	570.920414	988.079243	-654.091510	684.289298	873.295977	-519.415162	152.391890	1141.545864	-322.435177	304.903538	1129.624983	-454.959780	284.252190	1129.847615	-159.595603	343.900923	1095.448208	-422.816275	338.950374	1096.033070	-181.209330	188.112000	1169.041611	-269.207538	198.542679	1177.466535	-355.089411	245.170112	1040.723843	-129.960425	260.830818	1056.025697	-489.394327	307.055384	959.599549	-116.032794	360.147872	888.940032	-118.648653	374.583893	806.213409	-99.648428	390.226085	899.608581	-140.437818	401.624922	671.435938	-135.143690	396.295570	654.505646	-238.945436	381.781786	564.137147	-114.711096	385.343473	476.387766	-131.454912	347.513551	398.821877	-130.976495	401.352687	476.142789	-168.306579	312.637284	286.965832	-140.413291	323.521058	306.440402	-218.825944	500.230439	159.983904	-186.923922	392.044555	182.070199	-126.543347	422.440993	192.099148	-232.647898	381.793939	988.677786	-495.075706	461.708732	955.661025	-491.405381	479.936595	978.346098	-467.445754	515.439624	883.951058	-495.464988	582.238437	809.089423	-472.856836	569.833664	777.507526	-365.232668	511.010250	736.054288	-491.873151	448.103796	679.639992	-477.155949	360.611439	656.210297	-484.553672	458.038631	663.840590	-439.638097	259.981310	621.475697	-476.538125	270.069500	604.402999	-398.585676	185.147801	645.137562	-431.649098	308.463743	387.003196	-437.365185	239.144487	470.191008	-497.754892	-161.910063	859.524566	-311.335871	37.252796	86.880895	-514.275830	33.940772	83.154536	-114.135609	
1504	7.5200	683.547946	1164.692972	-106.607660	708.245071	1160.594839	-482.488671	721.136202	1234.058258	-303.724002	635.849547	1131.212166	-288.177830	532.429224	959.775610	-24.198540	675.488085	866.902683	-112.990774	571.137275	986.709076	-655.926480	683.987655	873.028251	-519.920740	153.168637	1140.486325	-320.878846	304.074043	1129.583047	-454.498639	285.526033	1128.121064	-158.900817	343.633525	1095.403022	-422.628813	340.412953	1094.024582	-180.911425	188.483825	1168.081872	-267.447994	197.673692	1176.874075	-353.488444	245.075621	1038.569013	-129.181325	260.712107	1055.524417	-488.804453	304.785526	956.798787	-115.367449	356.206816	884.990475	-117.966667	368.176883	802.021216	-99.106694	385.845863	895.634609	-137.843938	393.202934	666.967431	-134.845304	388.100688	650.078844	-238.430290	373.162684	559.872773	-114.233228	377.000090	472.218195	-130.817405	339.309948	394.402789	-130.348030	393.165086	472.082545	-167.394196	304.770602	282.497709	-139.996513	315.876544	302.004375	-218.243319	490.826013	153.380938	-186.350888	383.111670	176.390801	-126.469136	413.556322	186.287049	-232.744200	382.901789	990.916866	-494.003135	463.731301	959.586314	-489.429936	479.837169	984.205159	-467.429855	519.087746	889.511937	-493.420477	588.153890	815.882965	-469.651460	577.816965	785.202035	-360.692132	517.372068	743.053362	-489.282786	454.243898	686.361000	-474.597719	367.183800	662.818338	-482.978274	464.364782	671.022899	-437.945349	266.431141	627.750480	-475.764363	276.410383	610.708874	-397.628671	190.392981	650.091475	-431.293893	320.415240	395.064171	-438.611891	248.298806	476.422338	-497.431320	-161.848666	859.410247	-311.767120	37.256449	86.888965	-514.275709	33.951466	83.110258	-114.153703	
1505	7.5250	685.271508	1165.627238	-108.977554	707.766502	1159.493035	-484.779300	721.317708	1233.698051	-306.695356	636.428539	1130.751297	-289.857694	533.863330	961.599373	-23.846518	675.938360	866.949324	-112.537059	570.838555	984.983818	-657.952528	683.868438	872.994174	-520.318812	153.963744	1139.450467	-319.352668	303.248007	1129.576218	-454.084936	286.765901	1126.666093	-158.290128	343.333667	1095.517981	-422.400737	341.173306	1091.994084	-180.554877	188.967931	1166.976311	-265.987416	197.442312	1176.294341	-351.916956	244.892118	1036.847578	-128.616818	260.734353	1055.490154	-488.281459	302.535331	954.360578	-114.750603	352.313157	881.413184	-116.911933	362.394636	798.168909	-98.509526	382.332020	891.405220	-136.750981	385.017610	663.033887	-134.461426	380.110945	646.168155	-237.937590	364.698483	556.155012	-113.650220	368.636676	468.411265	-130.128171	330.986484	390.815885	-129.754549	384.921955	468.196312	-166.886881	296.762731	278.721595	-139.526794	308.092005	298.189105	-217.677278	481.415060	146.819527	-186.848740	373.953892	171.361685	-126.439386	404.321783	180.956471	-232.851712	383.999756	993.376678	-492.695793	465.494677	963.911807	-487.749793	481.116786	989.046087	-465.759764	522.377947	895.202157	-491.425287	592.822193	823.678294	-467.600729	585.117442	793.527744	-356.714032	523.686891	749.941264	-486.935895	460.739183	692.896722	-472.524926	373.823135	669.000067	-481.474595	470.710306	677.509743	-435.897954	272.944277	633.082599	-474.638392	282.902459	616.296918	-396.599563	195.855587	654.189738	-430.957608	331.456992	402.385532	-439.169305	257.635882	481.908554	-497.044468	-161.796332	859.553865	-311.353268	37.241516	86.916359	-514.261907	33.970435	83.086253	-114.192425	
1506	7.5300	686.991587	1166.571526	-111.321075	707.256859	1158.153527	-487.024523	721.860703	1233.811158	-309.670933	637.146723	1130.908043	-291.862338	535.260649	963.322542	-23.466724	676.420371	866.908336	-112.227522	571.034522	983.231081	-659.819102	683.180781	872.973239	-521.815530	154.604227	1138.653567	-317.808535	302.438328	1129.595103	-453.732061	287.900685	1125.415545	-157.736087	343.009857	1095.775532	-422.148628	341.372264	1089.575309	-180.098666	189.299212	1166.160197	-264.539710	197.151490	1175.826681	-350.403513	244.589855	1035.447544	-128.286057	260.804755	1055.195739	-487.782626	300.372299	952.259666	-114.458680	348.656262	878.405328	-116.366750	356.601163	794.642147	-98.342617	379.399587	887.653051	-136.814573	377.231722	659.644286	-134.064989	372.516402	642.758370	-237.334183	356.368968	553.082620	-112.936917	360.325210	465.275278	-129.382005	322.530970	387.714525	-129.148573	376.521063	465.242500	-165.612854	288.625280	275.463185	-139.172613	300.183001	295.159487	-217.101618	471.625034	141.283939	-186.606168	364.603442	166.976264	-126.383037	394.884146	176.290217	-232.965723	385.115109	995.936255	-491.384448	467.210081	968.404360	-485.708825	482.589669	993.658385	-463.974830	526.214129	900.773372	-488.504657	596.734734	831.334256	-466.697669	587.124411	800.095882	-355.692222	529.841714	756.679849	-484.578970	467.301237	699.357340	-470.769349	380.576567	674.609962	-479.972012	477.650015	683.600546	-433.981409	279.564105	637.437896	-473.472534	289.304659	620.938435	-395.569333	201.573481	657.556223	-430.584361	342.173652	407.896257	-438.245822	267.089957	486.807078	-496.760942	-161.872818	859.280572	-312.144286	37.249087	86.905525	-514.271350	33.982846	83.057683	-114.224727	
